<svg width="14" height="11" viewBox="0 0 14 11" fill="none" xmlns="http://www.w3.org/2000/svg">
<path fill-rule="evenodd" clip-rule="evenodd" d="M13.707 0.578815C13.8946 0.76651 14 1.02105 14 1.28645C14 1.55185 13.8946 1.80638 13.707 1.99408L5.6998 10.0012C5.51211 10.1889 5.25757 10.2943 4.99217 10.2943C4.72677 10.2943 4.47223 10.1889 4.28454 10.0012L0.280963 5.99765C0.0986418 5.80888 -0.00224262 5.55605 3.78364e-05 5.29362C0.00231829 5.03119 0.107581 4.78016 0.293155 4.59458C0.478729 4.40901 0.729765 4.30374 0.992197 4.30146C1.25463 4.29918 1.50746 4.40007 1.69623 4.58239L4.99217 7.87833L12.2917 0.578815C12.4794 0.391176 12.7339 0.285767 12.9993 0.285767C13.2647 0.285767 13.5193 0.391176 13.707 0.578815Z" fill="white"/>
</svg>
