<svg width="61" height="14" viewBox="0 0 61 14" fill="none" xmlns="http://www.w3.org/2000/svg">
<path d="M1.14 11.3202C0.833333 11.3202 0.566667 11.2069 0.34 10.9802C0.113333 10.7535 0 10.4869 0 10.1802V2.06021C0 1.75355 0.113333 1.48688 0.34 1.26021C0.566667 1.03355 0.833333 0.920215 1.14 0.920215H8.34C8.64667 0.920215 8.91333 1.03355 9.14 1.26021C9.36667 1.48688 9.48 1.75355 9.48 2.06021V10.1802C9.48 10.4869 9.36667 10.7535 9.14 10.9802C8.91333 11.2069 8.64667 11.3202 8.34 11.3202H7.34C7.03334 11.3202 6.76667 11.2069 6.54 10.9802C6.31333 10.7535 6.2 10.4869 6.2 10.1802V3.44021C6.2 3.33355 6.14667 3.28022 6.04 3.28022H3.44C3.33334 3.28022 3.28 3.33355 3.28 3.44021V10.1802C3.28 10.4869 3.16667 10.7535 2.94 10.9802C2.71334 11.2069 2.44667 11.3202 2.14 11.3202H1.14Z" fill="#F3752B"/>
<path d="M13.2689 11.3202C12.9622 11.3202 12.6956 11.2069 12.4689 10.9802C12.2422 10.7535 12.1289 10.4869 12.1289 10.1802V2.06021C12.1289 1.75355 12.2422 1.48688 12.4689 1.26021C12.6956 1.03355 12.9622 0.920215 13.2689 0.920215H14.2089C14.5156 0.920215 14.7822 1.03355 15.0089 1.26021C15.2356 1.48688 15.3489 1.75355 15.3489 2.06021V6.90022H15.3889L17.8489 1.94022C18.1822 1.26021 18.7289 0.920215 19.4889 0.920215H20.4689C20.7756 0.920215 21.0422 1.03355 21.2689 1.26021C21.4956 1.48688 21.6089 1.75355 21.6089 2.06021V10.1802C21.6089 10.4869 21.4956 10.7535 21.2689 10.9802C21.0422 11.2069 20.7756 11.3202 20.4689 11.3202H19.5289C19.2222 11.3202 18.9556 11.2069 18.7289 10.9802C18.5022 10.7535 18.3889 10.4869 18.3889 10.1802V5.34021H18.3489L15.8889 10.3002C15.5556 10.9802 15.0089 11.3202 14.2489 11.3202H13.2689Z" fill="#F3752B"/>
<path d="M25.3978 11.3202C25.0911 11.3202 24.8245 11.2069 24.5978 10.9802C24.3711 10.7535 24.2578 10.4869 24.2578 10.1802V2.06021C24.2578 1.75355 24.3711 1.48688 24.5978 1.26021C24.8245 1.03355 25.0911 0.920215 25.3978 0.920215H26.3978C26.7045 0.920215 26.9645 1.03355 27.1778 1.26021C27.4045 1.48688 27.5178 1.75355 27.5178 2.06021V8.94022C27.5178 9.04688 27.5778 9.10021 27.6978 9.10021H30.2778C30.3978 9.10021 30.4578 9.04688 30.4578 8.94022V2.06021C30.4578 1.75355 30.5711 1.48688 30.7978 1.26021C31.0245 1.03355 31.2911 0.920215 31.5978 0.920215H32.5978C32.9045 0.920215 33.1645 1.03355 33.3778 1.26021C33.6045 1.48688 33.7178 1.75355 33.7178 2.06021V8.94022C33.7178 9.04688 33.7778 9.10021 33.8978 9.10021H34.6578C34.9645 9.10021 35.2312 9.21355 35.4578 9.44022C35.6845 9.66688 35.7978 9.93355 35.7978 10.2402V12.5802C35.7978 12.8869 35.6845 13.1535 35.4578 13.3802C35.2312 13.6069 34.9645 13.7202 34.6578 13.7202H34.0578C33.7511 13.7202 33.4845 13.6069 33.2578 13.3802C33.0311 13.1535 32.9178 12.8869 32.9178 12.5802V11.5002C32.9178 11.3802 32.8645 11.3202 32.7578 11.3202H25.3978Z" fill="#F3752B"/>
<path d="M38.7767 11.3202C38.4701 11.3202 38.2034 11.2069 37.9767 10.9802C37.75 10.7535 37.6367 10.4869 37.6367 10.1802V2.06021C37.6367 1.75355 37.75 1.48688 37.9767 1.26021C38.2034 1.03355 38.4701 0.920215 38.7767 0.920215H39.7767C40.0834 0.920215 40.3434 1.03355 40.5567 1.26021C40.7834 1.48688 40.8967 1.75355 40.8967 2.06021V8.94022C40.8967 9.04688 40.9567 9.10021 41.0767 9.10021H43.6567C43.7767 9.10021 43.8367 9.04688 43.8367 8.94022V2.06021C43.8367 1.75355 43.9501 1.48688 44.1767 1.26021C44.4034 1.03355 44.6701 0.920215 44.9767 0.920215H45.9767C46.2834 0.920215 46.5434 1.03355 46.7567 1.26021C46.9834 1.48688 47.0967 1.75355 47.0967 2.06021V8.94022C47.0967 9.04688 47.1567 9.10021 47.2767 9.10021H48.0367C48.3434 9.10021 48.6101 9.21355 48.8367 9.44022C49.0634 9.66688 49.1767 9.93355 49.1767 10.2402V12.5802C49.1767 12.8869 49.0634 13.1535 48.8367 13.3802C48.6101 13.6069 48.3434 13.7202 48.0367 13.7202H47.4367C47.1301 13.7202 46.8634 13.6069 46.6367 13.3802C46.4101 13.1535 46.2967 12.8869 46.2967 12.5802V11.5002C46.2967 11.3802 46.2434 11.3202 46.1367 11.3202H38.7767Z" fill="#F3752B"/>
<path d="M55.9156 6.56021C54.289 6.56021 53.4756 7.06021 53.4756 8.06021C53.4756 8.42022 53.5823 8.70688 53.7956 8.92021C54.009 9.12021 54.2956 9.22021 54.6556 9.22021C55.2956 9.22021 55.8156 9.02022 56.2156 8.62022C56.6156 8.20688 56.8156 7.66021 56.8156 6.98022V6.74022C56.8156 6.62022 56.7556 6.56021 56.6356 6.56021H55.9156ZM53.6756 11.5202C52.7556 11.5202 51.9956 11.2269 51.3956 10.6402C50.809 10.0402 50.5156 9.26688 50.5156 8.32022C50.5156 5.89355 52.3156 4.68021 55.9156 4.68021H56.6356C56.7556 4.68021 56.8156 4.62688 56.8156 4.52022V4.42021C56.8156 3.91355 56.6823 3.54688 56.4156 3.32022C56.1623 3.09355 55.729 2.98021 55.1156 2.98021C54.3023 2.98021 53.329 3.10688 52.1956 3.36021C51.9156 3.41355 51.6623 3.35355 51.4356 3.18021C51.2223 3.00688 51.1156 2.78022 51.1156 2.50022V2.46021C51.1156 2.12688 51.2156 1.82688 51.4156 1.56021C51.629 1.28021 51.8956 1.11355 52.2156 1.06021C53.389 0.833548 54.4023 0.720215 55.2556 0.720215C57.0023 0.720215 58.2356 1.03355 58.9556 1.66021C59.689 2.28688 60.0556 3.32688 60.0556 4.78022V10.1802C60.0556 10.4869 59.9423 10.7535 59.7156 10.9802C59.489 11.2069 59.2223 11.3202 58.9156 11.3202H58.1756C57.8556 11.3202 57.5823 11.2135 57.3556 11.0002C57.129 10.7735 57.009 10.5002 56.9956 10.1802V9.96022C56.9956 9.94688 56.989 9.94022 56.9756 9.94022C56.949 9.94022 56.9356 9.94688 56.9356 9.96022C56.0956 11.0002 55.009 11.5202 53.6756 11.5202Z" fill="#F3752B"/>
</svg>
