<svg width="59" height="20" viewBox="0 0 59 20" fill="none" xmlns="http://www.w3.org/2000/svg">
<path d="M5.4 10.57C3.77333 10.57 2.96 11.07 2.96 12.07C2.96 12.43 3.06667 12.7167 3.28 12.93C3.49333 13.13 3.78 13.23 4.14 13.23C4.78 13.23 5.3 13.03 5.7 12.63C6.1 12.2167 6.3 11.67 6.3 10.99V10.75C6.3 10.63 6.24 10.57 6.12 10.57H5.4ZM3.16 15.53C2.24 15.53 1.48 15.2367 0.88 14.65C0.293333 14.05 0 13.2767 0 12.33C0 9.90335 1.8 8.69002 5.4 8.69002H6.12C6.24 8.69002 6.3 8.63669 6.3 8.53002V8.43002C6.3 7.92335 6.16667 7.55669 5.9 7.33002C5.64667 7.10335 5.21333 6.99002 4.6 6.99002C3.78667 6.99002 2.81333 7.11669 1.68 7.37002C1.4 7.42335 1.14667 7.36335 0.92 7.19002C0.706667 7.01669 0.6 6.79002 0.6 6.51002V6.47002C0.6 6.13669 0.7 5.83669 0.9 5.57002C1.11333 5.29002 1.38 5.12335 1.7 5.07002C2.87333 4.84335 3.88667 4.73002 4.74 4.73002C6.48667 4.73002 7.72 5.04335 8.44 5.67002C9.17333 6.29669 9.54 7.33669 9.54 8.79002V14.19C9.54 14.4967 9.42667 14.7634 9.2 14.99C8.97333 15.2167 8.70667 15.33 8.4 15.33H7.66C7.34 15.33 7.06667 15.2234 6.84 15.01C6.61333 14.7834 6.49333 14.51 6.48 14.19V13.97C6.48 13.9567 6.47333 13.95 6.46 13.95C6.43333 13.95 6.42 13.9567 6.42 13.97C5.58 15.01 4.49333 15.53 3.16 15.53Z" fill="#00A896"/>
<path d="M15.242 8.89002V11.37C15.242 11.81 15.442 12.2167 15.842 12.59C16.2554 12.95 16.722 13.13 17.242 13.13C17.8554 13.13 18.342 12.8834 18.702 12.39C19.062 11.8834 19.242 11.13 19.242 10.13C19.242 8.13002 18.5754 7.13002 17.242 7.13002C16.722 7.13002 16.2554 7.31669 15.842 7.69002C15.442 8.05002 15.242 8.45002 15.242 8.89002ZM13.222 19.73C12.9154 19.73 12.6487 19.6167 12.422 19.39C12.1954 19.1634 12.082 18.8967 12.082 18.59V6.07002C12.082 5.76335 12.1954 5.49669 12.422 5.27002C12.6487 5.04335 12.9154 4.93002 13.222 4.93002H14.022C14.342 4.93002 14.6154 5.04335 14.842 5.27002C15.0687 5.48335 15.1887 5.75002 15.202 6.07002V6.23002C15.202 6.24335 15.2087 6.25002 15.222 6.25002L15.262 6.21002C16.1154 5.22335 17.142 4.73002 18.342 4.73002C19.582 4.73002 20.5687 5.19669 21.302 6.13002C22.0487 7.06335 22.422 8.39669 22.422 10.13C22.422 11.81 22.0354 13.13 21.262 14.09C20.502 15.05 19.5287 15.53 18.342 15.53C17.2354 15.53 16.2487 15.1234 15.382 14.31C15.3687 14.2967 15.3554 14.29 15.342 14.29C15.3287 14.29 15.322 14.2967 15.322 14.31V18.59C15.322 18.8967 15.2087 19.1634 14.982 19.39C14.7554 19.6167 14.4887 19.73 14.182 19.73H13.222Z" fill="#00A896"/>
<path d="M25.0048 7.37002C24.6982 7.37002 24.4315 7.25669 24.2048 7.03002C23.9782 6.80335 23.8648 6.53669 23.8648 6.23002V6.07002C23.8648 5.76335 23.9782 5.49669 24.2048 5.27002C24.4315 5.04335 24.6982 4.93002 25.0048 4.93002H32.2448C32.5515 4.93002 32.8182 5.04335 33.0448 5.27002C33.2715 5.49669 33.3848 5.76335 33.3848 6.07002V6.23002C33.3848 6.53669 33.2715 6.80335 33.0448 7.03002C32.8182 7.25669 32.5515 7.37002 32.2448 7.37002H30.4648C30.3582 7.37002 30.3048 7.43002 30.3048 7.55002V14.19C30.3048 14.4967 30.1915 14.7634 29.9648 14.99C29.7382 15.2167 29.4715 15.33 29.1648 15.33H28.0848C27.7782 15.33 27.5115 15.2167 27.2848 14.99C27.0582 14.7634 26.9448 14.4967 26.9448 14.19V7.55002C26.9448 7.43002 26.8915 7.37002 26.7848 7.37002H25.0048Z" fill="#00A896"/>
<path d="M39.8819 6.91002C39.2819 6.91002 38.8285 7.07002 38.5219 7.39002C38.2152 7.69669 38.0219 8.23002 37.9419 8.99002C37.9419 9.09669 37.9885 9.15002 38.0819 9.15002H41.4619C41.5819 9.15002 41.6419 9.09002 41.6419 8.97002C41.5885 7.59669 41.0019 6.91002 39.8819 6.91002ZM40.3819 15.53C38.5685 15.53 37.1685 15.07 36.1819 14.15C35.2085 13.23 34.7219 11.89 34.7219 10.13C34.7219 8.38335 35.1552 7.05002 36.0219 6.13002C36.9019 5.19669 38.1685 4.73002 39.8219 4.73002C42.9952 4.73002 44.6085 6.46335 44.6619 9.93002C44.6619 10.25 44.5352 10.5234 44.2819 10.75C44.0419 10.9634 43.7619 11.07 43.4419 11.07H38.1019C37.9685 11.07 37.9152 11.13 37.9419 11.25C38.0485 11.9834 38.3285 12.51 38.7819 12.83C39.2485 13.1367 39.9419 13.29 40.8619 13.29C41.4619 13.29 42.1085 13.2034 42.8019 13.03C43.0819 12.9634 43.3285 13.0167 43.5419 13.19C43.7685 13.3634 43.8819 13.59 43.8819 13.87V13.91C43.8819 14.2434 43.7752 14.55 43.5619 14.83C43.3619 15.0967 43.1019 15.2567 42.7819 15.31C42.0085 15.4567 41.2085 15.53 40.3819 15.53ZM42.3619 0.27002C42.6685 0.27002 42.9285 0.383353 43.1419 0.610019C43.3685 0.823353 43.4819 1.08335 43.4819 1.39002V2.13002C43.4819 2.43669 43.3685 2.70335 43.1419 2.93002C42.9285 3.15669 42.6685 3.27002 42.3619 3.27002H41.6819C41.3752 3.27002 41.1085 3.15669 40.8819 2.93002C40.6685 2.70335 40.5619 2.43669 40.5619 2.13002V1.39002C40.5619 1.08335 40.6685 0.823353 40.8819 0.610019C41.1085 0.383353 41.3752 0.27002 41.6819 0.27002H42.3619ZM37.2819 0.27002H37.9619C38.2685 0.27002 38.5285 0.383353 38.7419 0.610019C38.9685 0.823353 39.0819 1.08335 39.0819 1.39002V2.13002C39.0819 2.43669 38.9685 2.70335 38.7419 2.93002C38.5285 3.15669 38.2685 3.27002 37.9619 3.27002H37.2819C36.9752 3.27002 36.7085 3.15669 36.4819 2.93002C36.2685 2.70335 36.1619 2.43669 36.1619 2.13002V1.39002C36.1619 1.08335 36.2685 0.823353 36.4819 0.610019C36.7085 0.383353 36.9752 0.27002 37.2819 0.27002Z" fill="#00A896"/>
<path d="M47.8309 15.33C47.5243 15.33 47.2576 15.2167 47.0309 14.99C46.8176 14.7634 46.7109 14.4967 46.7109 14.19V6.07002C46.7109 5.76335 46.8176 5.49669 47.0309 5.27002C47.2576 5.04335 47.5243 4.93002 47.8309 4.93002H48.8909C49.2243 4.93002 49.5376 5.03002 49.8309 5.23002C50.1243 5.41669 50.3443 5.66335 50.4909 5.97002L52.5509 10.69L52.5909 10.71L52.6109 10.69L54.6909 5.97002C54.8376 5.66335 55.0509 5.41669 55.3309 5.23002C55.6243 5.03002 55.9376 4.93002 56.2709 4.93002H57.3909C57.6976 4.93002 57.9576 5.04335 58.1709 5.27002C58.3976 5.49669 58.5109 5.76335 58.5109 6.07002V14.19C58.5109 14.4967 58.3976 14.7634 58.1709 14.99C57.9576 15.2167 57.6976 15.33 57.3909 15.33H56.4709C56.1643 15.33 55.8976 15.2167 55.6709 14.99C55.4576 14.7634 55.3509 14.4967 55.3509 14.19V9.31002L55.3309 9.29002L55.3109 9.31002L54.2109 11.91C54.0776 12.23 53.8643 12.4834 53.5709 12.67C53.2909 12.8567 52.9776 12.95 52.6309 12.95H52.5309C52.1843 12.95 51.8643 12.8567 51.5709 12.67C51.2909 12.4834 51.0843 12.23 50.9509 11.91L49.8509 9.31002L49.8309 9.29002L49.8109 9.31002V14.19C49.8109 14.4967 49.6976 14.7634 49.4709 14.99C49.2576 15.2167 48.9976 15.33 48.6909 15.33H47.8309Z" fill="#00A896"/>
</svg>
