<svg width="32" height="20" viewBox="0 0 32 20" fill="none" xmlns="http://www.w3.org/2000/svg">
<path d="M12.1496 5.1823L7.96 15.1659H5.22675L3.165 7.19804C3.04 6.70846 2.93138 6.52829 2.551 6.32127C1.92925 5.9839 0.9025 5.66838 0 5.4721L0.060875 5.1823H4.46138C5.02138 5.1823 5.52562 5.55475 5.65387 6.19966L6.74325 11.9773L9.43275 5.1823H12.1496ZM15.8446 5.1823L13.7067 15.1659H11.1208L13.2589 5.1823H15.8446ZM22.8591 11.9063C22.8699 9.27185 19.2124 9.12564 19.2362 7.94858C19.245 7.59073 19.5863 7.20978 20.3333 7.11239C20.7033 7.06457 21.7255 7.02648 22.8834 7.55939L23.3364 5.44101C22.7142 5.21626 21.9136 5 20.9177 5C18.3615 5 16.5634 6.35623 16.549 8.29981C16.5322 9.73745 17.8334 10.5387 18.8119 11.0175C19.8197 11.5065 20.1578 11.8207 20.1531 12.2578C20.1459 12.9276 19.3481 13.2242 18.6065 13.2352C17.306 13.2558 16.5521 12.8841 15.9508 12.6042L15.4814 14.7928C16.0864 15.0697 17.2014 15.3103 18.3563 15.3226C21.0738 15.3226 22.8511 13.9818 22.8591 11.9063ZM29.6091 15.1659H32L29.9112 5.1823H27.7054C27.2079 5.1823 26.7897 5.47072 26.6042 5.9141L22.7243 15.1659H25.4396L25.9783 13.6745H29.2957L29.6091 15.1659ZM26.7229 11.6287L28.0844 7.87953L28.8665 11.6287H26.7227H26.7229Z" fill="#1A1F71"/>
</svg>
